# xmcd CD database file
#
# Track frame offsets:
#	150
#	30213
#	54685
#	84213
#	109761
#	133161
#	154185
#	174966
#	195566
#	227424
#	254709
#	278037
#	306440
#
# Disc length: 4363 seconds
#
# Revision: 0
# Processed by: cddbd v1.5.2PL0 Copyright (c) Steve Scherf et al.
# Submitted via: CDex 1.51
#
DISCID=a611090d
DTITLE=Marc Evans - The Way You Love Me
DYEAR=2008
DGENRE=Rhythmic Soul
TTITLE0=The Way U Love Me
TTITLE1=Given Me Joy
TTITLE2=Reach Out For Love
TTITLE3=Beneath The Cresent Moon
TTITLE4=I Don't Want You Anymore
TTITLE5=Heartbeat
TTITLE6=Am I Crazy
TTITLE7=The Promise
TTITLE8=Serenity
TTITLE9=This Thing Called Love
TTITLE10=Tonight's The Night
TTITLE11=(If You Want My Love) Put Something Down On It
TTITLE12=Cresent Moon
EXTD=YEAR: 2008
EXTT0=
EXTT1=
EXTT2=
EXTT3=
EXTT4=
EXTT5=
EXTT6=
EXTT7=
EXTT8=
EXTT9=
EXTT10=
EXTT11=
EXTT12=
PLAYORDER=
